<svg xmlns="http://www.w3.org/2000/svg" version="1.1" xmlns:xlink="http://www.w3.org/1999/xlink" xmlns:svgjs="http://svgjs.dev/svgjs" viewBox="0 0 24.559344731363588 5.260214366063729"><g transform="matrix(1,0,0,1,7.736168363931279,0.9712571830318646)"><rect width="24.559344731363588" height="24.559344731363588" x="-7.736168363931279" y="-10.620822365681795" fill="#4e888f"></rect><g><path d=" M 1.3185 0.016499999999999737 L 1.3185 1.0739999999999998 L 1.0245 1.0739999999999998 L 1.0245 0.4904999999999998 L 0.8250000000000001 1.0739999999999998 L 0.579 1.0739999999999998 L 0.378 0.4859999999999999 L 0.378 1.0739999999999998 L 0.084 1.0739999999999998 L 0.084 0.016499999999999737 L 0.4395 0.016499999999999737 L 0.705 0.7034999999999998 L 0.9645 0.016499999999999737 L 1.3185 0.016499999999999737 M 2.1704963378906252 0.9014999999999999 L 1.7954963378906252 0.9014999999999999 L 1.738496337890625 1.0739999999999998 L 1.4294963378906251 1.0739999999999998 L 1.814996337890625 0.016499999999999737 L 2.153996337890625 0.016499999999999737 L 2.5379963378906254 1.0739999999999998 L 2.227496337890625 1.0739999999999998 L 2.1704963378906252 0.9014999999999999 M 2.096996337890625 0.6764999999999999 L 1.9829963378906252 0.3344999999999998 L 1.8704963378906252 0.6764999999999999 L 2.096996337890625 0.6764999999999999 M 3.184503662109375 1.0739999999999998 L 2.9745036621093752 0.6839999999999998 L 2.9430036621093754 0.6839999999999998 L 2.9430036621093754 1.0739999999999998 L 2.6490036621093753 1.0739999999999998 L 2.6490036621093753 0.016499999999999737 L 3.112503662109375 0.016499999999999737 Q 3.240003662109375 0.016499999999999737 3.3285036621093753 0.06074999999999986 Q 3.417003662109375 0.10499999999999987 3.4620036621093755 0.1822499999999998 Q 3.5070036621093754 0.25949999999999984 3.5070036621093754 0.3554999999999998 Q 3.5070036621093754 0.4634999999999998 3.4477536621093754 0.5452499999999998 Q 3.3885036621093754 0.6269999999999998 3.2745036621093755 0.6614999999999998 L 3.513003662109375 1.0739999999999998 L 3.184503662109375 1.0739999999999998 M 2.9430036621093754 0.4829999999999999 L 3.088503662109375 0.4829999999999999 Q 3.148503662109375 0.4829999999999999 3.1785036621093754 0.4544999999999998 Q 3.208503662109375 0.4259999999999998 3.208503662109375 0.3719999999999998 Q 3.208503662109375 0.32099999999999984 3.1777536621093754 0.29174999999999984 Q 3.147003662109375 0.26249999999999984 3.088503662109375 0.26249999999999984 L 2.9430036621093754 0.26249999999999984 L 2.9430036621093754 0.4829999999999999 M 3.6847697753906252 0.2647499999999998 Q 3.7500197753906255 0.14249999999999985 3.8700197753906256 0.07424999999999982 Q 3.9900197753906252 0.005999999999999783 4.146019775390625 0.005999999999999783 Q 4.344019775390626 0.005999999999999783 4.479019775390626 0.1117499999999998 Q 4.614019775390625 0.2174999999999998 4.653019775390625 0.3989999999999998 L 4.3365197753906255 0.3989999999999998 Q 4.308019775390625 0.33899999999999986 4.257769775390625 0.3074999999999998 Q 4.207519775390625 0.2759999999999998 4.141519775390625 0.2759999999999998 Q 4.039519775390626 0.2759999999999998 3.9787697753906253 0.3487499999999998 Q 3.9180197753906256 0.4214999999999999 3.9180197753906256 0.5429999999999998 Q 3.9180197753906256 0.6659999999999998 3.9787697753906253 0.7387499999999998 Q 4.039519775390626 0.8114999999999999 4.141519775390625 0.8114999999999999 Q 4.207519775390625 0.8114999999999999 4.257769775390625 0.7799999999999998 Q 4.308019775390625 0.7484999999999998 4.3365197753906255 0.6884999999999999 L 4.653019775390625 0.6884999999999999 Q 4.614019775390625 0.8699999999999999 4.479019775390626 0.9757499999999999 Q 4.344019775390626 1.0815 4.146019775390625 1.0815 Q 3.9900197753906252 1.0815 3.8700197753906256 1.0132499999999998 Q 3.7500197753906255 0.9449999999999998 3.6847697753906252 0.8227499999999999 Q 3.6195197753906254 0.7004999999999999 3.6195197753906254 0.5429999999999998 Q 3.6195197753906254 0.3869999999999998 3.6847697753906252 0.2647499999999998 M 5.04151318359375 1.0147499999999998 Q 4.917013183593751 0.9449999999999998 4.844263183593751 0.8212499999999998 Q 4.7715131835937505 0.6974999999999998 4.7715131835937505 0.5414999999999999 Q 4.7715131835937505 0.38549999999999984 4.844263183593751 0.2617499999999998 Q 4.917013183593751 0.1379999999999998 5.04151318359375 0.06899999999999973 Q 5.16601318359375 -2.220446049250313e-16 5.314513183593751 -2.220446049250313e-16 Q 5.46451318359375 -2.220446049250313e-16 5.58826318359375 0.06899999999999973 Q 5.712013183593751 0.1379999999999998 5.784013183593751 0.2617499999999998 Q 5.856013183593751 0.38549999999999984 5.856013183593751 0.5414999999999999 Q 5.856013183593751 0.6974999999999998 5.784013183593751 0.8212499999999998 Q 5.712013183593751 0.9449999999999998 5.58751318359375 1.0147499999999998 Q 5.46301318359375 1.0844999999999998 5.314513183593751 1.0844999999999998 Q 5.16601318359375 1.0844999999999998 5.04151318359375 1.0147499999999998 M 5.49226318359375 0.7379999999999998 Q 5.55751318359375 0.6644999999999999 5.55751318359375 0.5414999999999999 Q 5.55751318359375 0.41549999999999987 5.49226318359375 0.3427499999999998 Q 5.4270131835937505 0.2699999999999998 5.314513183593751 0.2699999999999998 Q 5.200513183593751 0.2699999999999998 5.13601318359375 0.3427499999999998 Q 5.07151318359375 0.41549999999999987 5.07151318359375 0.5414999999999999 Q 5.07151318359375 0.6659999999999998 5.13601318359375 0.7387499999999998 Q 5.200513183593751 0.8114999999999999 5.314513183593751 0.8114999999999999 Q 5.4270131835937505 0.8114999999999999 5.49226318359375 0.7379999999999998 M 7.1272126464843755 0.6232499999999999 Q 7.181962646484376 0.6944999999999999 7.181962646484376 0.7859999999999998 Q 7.181962646484376 0.9209999999999998 7.088962646484376 0.9974999999999998 Q 6.995962646484376 1.0739999999999998 6.827962646484376 1.0739999999999998 L 6.304462646484375 1.0739999999999998 L 6.304462646484375 0.016499999999999737 L 6.811462646484376 0.016499999999999737 Q 6.973462646484376 0.016499999999999737 7.065712646484376 0.0884999999999998 Q 7.157962646484376 0.16049999999999986 7.157962646484376 0.2909999999999998 Q 7.157962646484376 0.3839999999999998 7.109212646484376 0.4462499999999998 Q 7.060462646484376 0.5084999999999998 6.979462646484376 0.5309999999999998 Q 7.072462646484376 0.5519999999999998 7.1272126464843755 0.6232499999999999 M 6.598462646484376 0.4364999999999998 L 6.746962646484375 0.4364999999999998 Q 6.857962646484376 0.4364999999999998 6.857962646484376 0.34499999999999986 Q 6.857962646484376 0.25049999999999983 6.746962646484375 0.25049999999999983 L 6.598462646484376 0.25049999999999983 L 6.598462646484376 0.4364999999999998 M 6.880462646484376 0.7439999999999998 Q 6.880462646484376 0.6959999999999998 6.851212646484376 0.6704999999999999 Q 6.8219626464843754 0.6449999999999998 6.767962646484376 0.6449999999999998 L 6.598462646484376 0.6449999999999998 L 6.598462646484376 0.8369999999999999 L 6.769462646484376 0.8369999999999999 Q 6.880462646484376 0.8369999999999999 6.880462646484376 0.7439999999999998 M 7.613993408203125 0.016499999999999737 L 7.613993408203125 0.6299999999999999 Q 7.613993408203125 0.7154999999999998 7.653743408203125 0.7619999999999998 Q 7.693493408203126 0.8084999999999998 7.774493408203125 0.8084999999999998 Q 7.855493408203126 0.8084999999999998 7.896743408203125 0.7612499999999998 Q 7.937993408203125 0.7139999999999999 7.937993408203125 0.6299999999999999 L 7.937993408203125 0.016499999999999737 L 8.231993408203126 0.016499999999999737 L 8.231993408203126 0.6299999999999999 Q 8.231993408203126 0.7754999999999999 8.170493408203125 0.8782499999999999 Q 8.108993408203126 0.9809999999999999 8.003243408203126 1.0327499999999998 Q 7.897493408203125 1.0844999999999998 7.768493408203126 1.0844999999999998 Q 7.639493408203125 1.0844999999999998 7.538243408203125 1.0327499999999998 Q 7.436993408203126 0.9809999999999999 7.379243408203125 0.8789999999999998 Q 7.321493408203126 0.7769999999999999 7.321493408203126 0.6299999999999999 L 7.321493408203126 0.016499999999999737 L 7.613993408203125 0.016499999999999737 M 8.944456054687501 1.0739999999999998 L 8.7344560546875 0.6839999999999998 L 8.702956054687501 0.6839999999999998 L 8.702956054687501 1.0739999999999998 L 8.4089560546875 1.0739999999999998 L 8.4089560546875 0.016499999999999737 L 8.8724560546875 0.016499999999999737 Q 8.999956054687502 0.016499999999999737 9.088456054687502 0.06074999999999986 Q 9.176956054687501 0.10499999999999987 9.221956054687501 0.1822499999999998 Q 9.266956054687501 0.25949999999999984 9.266956054687501 0.3554999999999998 Q 9.266956054687501 0.4634999999999998 9.2077060546875 0.5452499999999998 Q 9.1484560546875 0.6269999999999998 9.034456054687501 0.6614999999999998 L 9.272956054687501 1.0739999999999998 L 8.944456054687501 1.0739999999999998 M 8.702956054687501 0.4829999999999999 L 8.848456054687501 0.4829999999999999 Q 8.908456054687502 0.4829999999999999 8.938456054687501 0.4544999999999998 Q 8.9684560546875 0.4259999999999998 8.9684560546875 0.3719999999999998 Q 8.9684560546875 0.32099999999999984 8.937706054687501 0.29174999999999984 Q 8.906956054687502 0.26249999999999984 8.848456054687501 0.26249999999999984 L 8.702956054687501 0.26249999999999984 L 8.702956054687501 0.4829999999999999 M 10.090472167968752 0.3644999999999998 Q 10.064972167968751 0.3224999999999998 10.020722167968751 0.2999999999999998 Q 9.976472167968751 0.27749999999999986 9.916472167968752 0.27749999999999986 Q 9.805472167968752 0.27749999999999986 9.741722167968751 0.3494999999999998 Q 9.677972167968752 0.4214999999999999 9.677972167968752 0.5429999999999998 Q 9.677972167968752 0.6794999999999998 9.746222167968751 0.7507499999999998 Q 9.814472167968752 0.8219999999999998 9.944972167968752 0.8219999999999998 Q 10.099472167968752 0.8219999999999998 10.165472167968751 0.6824999999999999 L 9.86997216796875 0.6824999999999999 L 9.86997216796875 0.47099999999999986 L 10.418972167968752 0.47099999999999986 L 10.418972167968752 0.7559999999999998 Q 10.384472167968752 0.8399999999999999 10.317722167968752 0.9134999999999999 Q 10.25097216796875 0.9869999999999999 10.148972167968752 1.03425 Q 10.046972167968752 1.0815 9.916472167968752 1.0815 Q 9.757472167968752 1.0815 9.635222167968752 1.0132499999999998 Q 9.512972167968751 0.9449999999999998 9.446222167968752 0.8227499999999999 Q 9.379472167968752 0.7004999999999999 9.379472167968752 0.5429999999999998 Q 9.379472167968752 0.3869999999999998 9.446222167968752 0.2647499999999998 Q 9.512972167968751 0.14249999999999985 9.634472167968752 0.07424999999999982 Q 9.755972167968752 0.005999999999999783 9.914972167968752 0.005999999999999783 Q 10.114472167968751 0.005999999999999783 10.24497216796875 0.10199999999999987 Q 10.375472167968752 0.19799999999999984 10.406972167968751 0.3644999999999998 L 10.090472167968752 0.3644999999999998 M 11.800500732421877 0.016499999999999737 L 11.800500732421877 1.0739999999999998 L 11.506500732421877 1.0739999999999998 L 11.506500732421877 0.4904999999999998 L 11.307000732421876 1.0739999999999998 L 11.061000732421878 1.0739999999999998 L 10.860000732421877 0.4859999999999999 L 10.860000732421877 1.0739999999999998 L 10.566000732421877 1.0739999999999998 L 10.566000732421877 0.016499999999999737 L 10.921500732421878 0.016499999999999737 L 11.187000732421877 0.7034999999999998 L 11.446500732421876 0.016499999999999737 L 11.800500732421877 0.016499999999999737 M 12.277497070312503 0.2519999999999998 L 12.277497070312503 0.4244999999999999 L 12.614997070312503 0.4244999999999999 L 12.614997070312503 0.6479999999999999 L 12.277497070312503 0.6479999999999999 L 12.277497070312503 0.8384999999999998 L 12.659997070312503 0.8384999999999998 L 12.659997070312503 1.0739999999999998 L 11.983497070312502 1.0739999999999998 L 11.983497070312502 0.016499999999999737 L 12.659997070312503 0.016499999999999737 L 12.659997070312503 0.2519999999999998 L 12.277497070312503 0.2519999999999998 M 13.114457519531253 0.016499999999999737 L 13.114457519531253 1.0739999999999998 L 12.820457519531253 1.0739999999999998 L 12.820457519531253 0.016499999999999737 L 13.114457519531253 0.016499999999999737 M 13.997932617187503 0.016499999999999737 L 13.997932617187503 0.7169999999999999 Q 13.997932617187503 0.8954999999999999 13.901182617187503 0.9899999999999999 Q 13.804432617187503 1.0844999999999998 13.634932617187504 1.0844999999999998 Q 13.454932617187504 1.0844999999999998 13.347682617187504 0.9839999999999999 Q 13.240432617187503 0.8834999999999998 13.240432617187503 0.6944999999999999 L 13.531432617187503 0.6944999999999999 Q 13.532932617187504 0.8189999999999998 13.622932617187503 0.8189999999999998 Q 13.703932617187505 0.8189999999999998 13.703932617187505 0.7169999999999999 L 13.703932617187505 0.016499999999999737 L 13.997932617187503 0.016499999999999737 M 14.482409179687505 0.2519999999999998 L 14.482409179687505 0.4244999999999999 L 14.819909179687505 0.4244999999999999 L 14.819909179687505 0.6479999999999999 L 14.482409179687505 0.6479999999999999 L 14.482409179687505 0.8384999999999998 L 14.864909179687505 0.8384999999999998 L 14.864909179687505 1.0739999999999998 L 14.188409179687504 1.0739999999999998 L 14.188409179687504 0.016499999999999737 L 14.864909179687505 0.016499999999999737 L 14.864909179687505 0.2519999999999998 L 14.482409179687505 0.2519999999999998 M 15.560869628906255 1.0739999999999998 L 15.350869628906255 0.6839999999999998 L 15.319369628906255 0.6839999999999998 L 15.319369628906255 1.0739999999999998 L 15.025369628906255 1.0739999999999998 L 15.025369628906255 0.016499999999999737 L 15.488869628906254 0.016499999999999737 Q 15.616369628906256 0.016499999999999737 15.704869628906255 0.06074999999999986 Q 15.793369628906255 0.10499999999999987 15.838369628906255 0.1822499999999998 Q 15.883369628906255 0.25949999999999984 15.883369628906255 0.3554999999999998 Q 15.883369628906255 0.4634999999999998 15.824119628906255 0.5452499999999998 Q 15.764869628906254 0.6269999999999998 15.650869628906255 0.6614999999999998 L 15.889369628906255 1.0739999999999998 L 15.560869628906255 1.0739999999999998 M 15.319369628906255 0.4829999999999999 L 15.464869628906255 0.4829999999999999 Q 15.524869628906256 0.4829999999999999 15.554869628906255 0.4544999999999998 Q 15.584869628906254 0.4259999999999998 15.584869628906254 0.3719999999999998 Q 15.584869628906254 0.32099999999999984 15.554119628906255 0.29174999999999984 Q 15.523369628906256 0.26249999999999984 15.464869628906255 0.26249999999999984 L 15.319369628906255 0.26249999999999984 L 15.319369628906255 0.4829999999999999 M 0.6195 2.442 L 0.40950000000000003 2.052 L 0.378 2.052 L 0.378 2.442 L 0.084 2.442 L 0.084 1.3845 L 0.5475 1.3845 Q 0.675 1.3845 0.7635000000000001 1.4287500000000002 Q 0.852 1.4730000000000003 0.897 1.5502500000000001 Q 0.9420000000000001 1.6275000000000002 0.9420000000000001 1.7235 Q 0.9420000000000001 1.8315000000000001 0.88275 1.9132500000000001 Q 0.8235 1.995 0.7095 2.0295 L 0.9480000000000001 2.442 L 0.6195 2.442 M 0.378 1.8510000000000002 L 0.5235 1.8510000000000002 Q 0.5835 1.8510000000000002 0.6135 1.8225000000000002 Q 0.6435 1.794 0.6435 1.7400000000000002 Q 0.6435 1.689 0.61275 1.6597500000000003 Q 0.582 1.6305 0.5235 1.6305 L 0.378 1.6305 L 0.378 1.8510000000000002 M 1.7595161132812502 2.2695000000000003 L 1.3845161132812502 2.2695000000000003 L 1.32751611328125 2.442 L 1.0185161132812501 2.442 L 1.40401611328125 1.3845 L 1.74301611328125 1.3845 L 2.1270161132812504 2.442 L 1.8165161132812502 2.442 L 1.7595161132812502 2.2695000000000003 M 1.6860161132812501 2.0445 L 1.5720161132812502 1.7025000000000001 L 1.4595161132812502 2.0445 L 1.6860161132812501 2.0445 M 2.5320234375000004 1.3845 L 2.5320234375000004 2.442 L 2.2380234375000003 2.442 L 2.2380234375000003 1.3845 L 2.5320234375000004 1.3845 M 3.36449853515625 1.8000000000000003 L 3.36449853515625 2.0445 L 2.68499853515625 2.0445 L 2.68499853515625 1.8000000000000003 L 3.36449853515625 1.8000000000000003 M 3.8910029296875006 1.62 L 3.8910029296875006 1.7925000000000002 L 4.228502929687501 1.7925000000000002 L 4.228502929687501 2.016 L 3.8910029296875006 2.016 L 3.8910029296875006 2.2065 L 4.273502929687501 2.2065 L 4.273502929687501 2.442 L 3.5970029296875006 2.442 L 3.5970029296875006 1.3845 L 4.273502929687501 1.3845 L 4.273502929687501 1.62 L 3.8910029296875006 1.62 M 5.09546337890625 2.442 L 4.88996337890625 2.1435000000000004 L 4.71446337890625 2.442 L 4.37996337890625 2.442 L 4.72346337890625 1.9005 L 4.36796337890625 1.3845 L 4.71446337890625 1.3845 L 4.91396337890625 1.6755 L 5.0849633789062505 1.3845 L 5.419463378906251 1.3845 L 5.08046337890625 1.9170000000000003 L 5.44196337890625 2.442 L 5.09546337890625 2.442 M 6.34873388671875 1.91175 Q 6.30448388671875 1.9905000000000002 6.2152338867187495 2.03775 Q 6.12598388671875 2.085 5.99698388671875 2.085 L 5.85148388671875 2.085 L 5.85148388671875 2.442 L 5.5574838867187495 2.442 L 5.5574838867187495 1.3845 L 5.99698388671875 1.3845 Q 6.12448388671875 1.3845 6.2137338867187495 1.4295000000000002 Q 6.30298388671875 1.4745000000000001 6.34798388671875 1.5540000000000003 Q 6.39298388671875 1.6335000000000002 6.39298388671875 1.737 Q 6.39298388671875 1.8330000000000002 6.34873388671875 1.91175 M 6.09298388671875 1.737 Q 6.09298388671875 1.6215000000000002 5.96848388671875 1.6215000000000002 L 5.85148388671875 1.6215000000000002 L 5.85148388671875 1.8510000000000002 L 5.96848388671875 1.8510000000000002 Q 6.09298388671875 1.8510000000000002 6.09298388671875 1.737 M 6.82046337890625 1.62 L 6.82046337890625 1.7925000000000002 L 7.157963378906249 1.7925000000000002 L 7.157963378906249 2.016 L 6.82046337890625 2.016 L 6.82046337890625 2.2065 L 7.20296337890625 2.2065 L 7.20296337890625 2.442 L 6.526463378906249 2.442 L 6.526463378906249 1.3845 L 7.20296337890625 1.3845 L 7.20296337890625 1.62 L 6.82046337890625 1.62 M 7.898923828125 2.442 L 7.688923828125 2.052 L 7.657423828124999 2.052 L 7.657423828124999 2.442 L 7.363423828124999 2.442 L 7.363423828124999 1.3845 L 7.8269238281249995 1.3845 Q 7.954423828124999 1.3845 8.042923828125 1.4287500000000002 Q 8.131423828125 1.4730000000000003 8.176423828125 1.5502500000000001 Q 8.221423828125 1.6275000000000002 8.221423828125 1.7235 Q 8.221423828125 1.8315000000000001 8.162173828124999 1.9132500000000001 Q 8.102923828124998 1.995 7.9889238281249995 2.0295 L 8.227423828125 2.442 L 7.898923828125 2.442 M 7.657423828124999 1.8510000000000002 L 7.8029238281249995 1.8510000000000002 Q 7.862923828124999 1.8510000000000002 7.892923828124999 1.8225000000000002 Q 7.922923828124999 1.794 7.922923828124999 1.7400000000000002 Q 7.922923828124999 1.689 7.892173828124999 1.6597500000000003 Q 7.861423828124999 1.6305 7.8029238281249995 1.6305 L 7.657423828124999 1.6305 L 7.657423828124999 1.8510000000000002 M 9.16643994140625 1.3845 L 9.16643994140625 1.6185 L 8.88443994140625 1.6185 L 8.88443994140625 2.442 L 8.590439941406249 2.442 L 8.590439941406249 1.6185 L 8.311439941406249 1.6185 L 8.311439941406249 1.3845 L 9.16643994140625 1.3845 M 9.58494580078125 1.62 L 9.58494580078125 1.7925000000000002 L 9.92244580078125 1.7925000000000002 L 9.92244580078125 2.016 L 9.58494580078125 2.016 L 9.58494580078125 2.2065 L 9.96744580078125 2.2065 L 9.96744580078125 2.442 L 9.29094580078125 2.442 L 9.29094580078125 1.3845 L 9.96744580078125 1.3845 L 9.96744580078125 1.62 L 9.58494580078125 1.62" fill="#ffffff" fill-rule="nonzero"></path></g><g><path d=" M 0.42675 3.0443249999999997 Q 0.40575 3.0822 0.36225 3.10545 Q 0.31875000000000003 3.1287 0.25425000000000003 3.1287 L 0.17475000000000002 3.1287 L 0.17475000000000002 3.3177 L 0.0465 3.3177 L 0.0465 2.7912 L 0.25425000000000003 2.7912 Q 0.31725000000000003 2.7912 0.36075 2.81295 Q 0.40425 2.8346999999999998 0.426 2.87295 Q 0.44775000000000004 2.9112 0.44775000000000004 2.9607 Q 0.44775000000000004 3.00645 0.42675 3.0443249999999997 M 0.29925 3.0094499999999997 Q 0.31725000000000003 2.9922 0.31725000000000003 2.9607 Q 0.31725000000000003 2.9292 0.29925 2.91195 Q 0.28125 2.8947 0.2445 2.8947 L 0.17475000000000002 2.8947 L 0.17475000000000002 3.0267 L 0.2445 3.0267 Q 0.28125 3.0267 0.29925 3.0094499999999997 M 0.790517578125 3.3177 L 0.6810175781250001 3.11895 L 0.650267578125 3.11895 L 0.650267578125 3.3177 L 0.522017578125 3.3177 L 0.522017578125 2.7912 L 0.737267578125 2.7912 Q 0.799517578125 2.7912 0.843392578125 2.81295 Q 0.887267578125 2.8346999999999998 0.9090175781250001 2.872575 Q 0.930767578125 2.91045 0.930767578125 2.95695 Q 0.930767578125 3.0094499999999997 0.901142578125 3.0507 Q 0.871517578125 3.0919499999999998 0.813767578125 3.1092 L 0.9352675781249999 3.3177 L 0.790517578125 3.3177 M 0.650267578125 3.0282 L 0.729767578125 3.0282 Q 0.7650175781249999 3.0282 0.7826425781249999 3.01095 Q 0.8002675781249999 2.9937 0.8002675781249999 2.9621999999999997 Q 0.8002675781249999 2.9322 0.7826425781249999 2.9149499999999997 Q 0.7650175781249999 2.8977 0.729767578125 2.8977 L 0.650267578125 2.8977 L 0.650267578125 3.0282 M 1.346250732421875 3.2247 L 1.149750732421875 3.2247 L 1.118250732421875 3.3177 L 0.984000732421875 3.3177 L 1.174500732421875 2.7912 L 1.323000732421875 2.7912 L 1.513500732421875 3.3177 L 1.377750732421875 3.3177 L 1.346250732421875 3.2247 M 1.313250732421875 3.1256999999999997 L 1.248000732421875 2.93295 L 1.183500732421875 3.1256999999999997 L 1.313250732421875 3.1256999999999997 M 1.9282503662109374 2.9577 Q 1.9140003662109375 2.93145 1.8873753662109376 2.917575 Q 1.8607503662109375 2.9036999999999997 1.8247503662109374 2.9036999999999997 Q 1.7625003662109375 2.9036999999999997 1.7250003662109374 2.944575 Q 1.6875003662109376 2.9854499999999997 1.6875003662109376 3.0537 Q 1.6875003662109376 3.1264499999999997 1.7268753662109375 3.167325 Q 1.7662503662109375 3.2081999999999997 1.8352503662109374 3.2081999999999997 Q 1.8825003662109374 3.2081999999999997 1.9151253662109375 3.1841999999999997 Q 1.9477503662109374 3.1601999999999997 1.9627503662109373 3.1151999999999997 L 1.8000003662109374 3.1151999999999997 L 1.8000003662109374 3.0206999999999997 L 2.0790003662109373 3.0206999999999997 L 2.0790003662109373 3.13995 Q 2.064750366210937 3.18795 2.0306253662109377 3.2292 Q 1.9965003662109375 3.27045 1.9440003662109375 3.29595 Q 1.8915003662109375 3.32145 1.8255003662109375 3.32145 Q 1.7475003662109374 3.32145 1.6863753662109375 3.287325 Q 1.6252503662109374 3.2531999999999996 1.5911253662109375 3.19245 Q 1.5570003662109375 3.1317 1.5570003662109375 3.0537 Q 1.5570003662109375 2.9757 1.5911253662109375 2.9145749999999997 Q 1.6252503662109374 2.85345 1.6860003662109375 2.819325 Q 1.7467503662109374 2.7851999999999997 1.8247503662109374 2.7851999999999997 Q 1.9192503662109375 2.7851999999999997 1.9841253662109375 2.8309499999999996 Q 2.0490003662109375 2.8767 2.0700003662109374 2.9577 L 1.9282503662109374 2.9577 M 2.754018310546875 2.7912 L 2.754018310546875 3.3177 L 2.625768310546875 3.3177 L 2.625768310546875 3.00195 L 2.508018310546875 3.3177 L 2.4045183105468753 3.3177 L 2.286018310546875 3.0012 L 2.286018310546875 3.3177 L 2.1577683105468752 3.3177 L 2.1577683105468752 2.7912 L 2.309268310546875 2.7912 L 2.457018310546875 3.1557 L 2.6032683105468752 2.7912 L 2.754018310546875 2.7912 M 3.181540649414063 3.2247 L 2.985040649414063 3.2247 L 2.9535406494140632 3.3177 L 2.819290649414063 3.3177 L 3.009790649414063 2.7912 L 3.158290649414063 2.7912 L 3.348790649414063 3.3177 L 3.213040649414063 3.3177 L 3.181540649414063 3.2247 M 3.148540649414063 3.1256999999999997 L 3.083290649414063 2.93295 L 3.018790649414063 3.1256999999999997 L 3.148540649414063 3.1256999999999997 M 3.792790283203126 2.7912 L 3.792790283203126 2.89395 L 3.653290283203126 2.89395 L 3.653290283203126 3.3177 L 3.525040283203126 3.3177 L 3.525040283203126 2.89395 L 3.3855402832031256 2.89395 L 3.3855402832031256 2.7912 L 3.792790283203126 2.7912 M 3.993042846679688 2.7912 L 3.993042846679688 3.3177 L 3.864792846679688 3.3177 L 3.864792846679688 2.7912 L 3.993042846679688 2.7912 M 4.180530029296875 3.3042 Q 4.134780029296875 3.28545 4.107405029296875 3.2487 Q 4.080030029296876 3.21195 4.078530029296876 3.1601999999999997 L 4.215030029296876 3.1601999999999997 Q 4.218030029296876 3.18945 4.2352800292968755 3.204825 Q 4.252530029296875 3.2201999999999997 4.2802800292968755 3.2201999999999997 Q 4.308780029296876 3.2201999999999997 4.325280029296875 3.2070749999999997 Q 4.341780029296875 3.19395 4.341780029296875 3.1707 Q 4.341780029296875 3.1512 4.3286550292968755 3.1384499999999997 Q 4.315530029296876 3.1256999999999997 4.296405029296875 3.11745 Q 4.277280029296875 3.1092 4.242030029296876 3.0987 Q 4.191030029296876 3.08295 4.158780029296875 3.0671999999999997 Q 4.126530029296876 3.05145 4.103280029296876 3.0206999999999997 Q 4.080030029296876 2.98995 4.080030029296876 2.94045 Q 4.080030029296876 2.86695 4.133280029296875 2.825325 Q 4.1865300292968755 2.7836999999999996 4.272030029296875 2.7836999999999996 Q 4.359030029296876 2.7836999999999996 4.412280029296875 2.825325 Q 4.465530029296875 2.86695 4.4692800292968755 2.9412 L 4.330530029296876 2.9412 Q 4.3290300292968755 2.9156999999999997 4.311780029296876 2.9010749999999996 Q 4.294530029296875 2.88645 4.267530029296876 2.88645 Q 4.244280029296876 2.88645 4.230030029296875 2.898825 Q 4.215780029296876 2.9112 4.215780029296876 2.93445 Q 4.215780029296876 2.95995 4.239780029296876 2.9741999999999997 Q 4.263780029296876 2.98845 4.314780029296876 3.00495 Q 4.365780029296875 3.0221999999999998 4.3976550292968755 3.03795 Q 4.429530029296876 3.0537 4.452780029296876 3.0837 Q 4.476030029296876 3.1136999999999997 4.476030029296876 3.1609499999999997 Q 4.476030029296876 3.20595 4.453155029296876 3.2426999999999997 Q 4.430280029296876 3.2794499999999998 4.386780029296876 3.3011999999999997 Q 4.343280029296875 3.32295 4.284030029296876 3.32295 Q 4.226280029296875 3.32295 4.180530029296875 3.3042 M 4.574272705078126 2.9145749999999997 Q 4.608022705078126 2.85345 4.668397705078126 2.819325 Q 4.728772705078126 2.7851999999999997 4.805272705078126 2.7851999999999997 Q 4.899022705078126 2.7851999999999997 4.965772705078126 2.8346999999999998 Q 5.032522705078126 2.8842 5.055022705078126 2.9697 L 4.914022705078126 2.9697 Q 4.898272705078126 2.9367 4.869397705078126 2.91945 Q 4.840522705078126 2.9021999999999997 4.803772705078126 2.9021999999999997 Q 4.744522705078126 2.9021999999999997 4.707772705078126 2.94345 Q 4.6710227050781254 2.9846999999999997 4.6710227050781254 3.0537 Q 4.6710227050781254 3.1227 4.707772705078126 3.16395 Q 4.744522705078126 3.2052 4.803772705078126 3.2052 Q 4.840522705078126 3.2052 4.869397705078126 3.18795 Q 4.898272705078126 3.1707 4.914022705078126 3.1376999999999997 L 5.055022705078126 3.1376999999999997 Q 5.032522705078126 3.2232 4.965772705078126 3.272325 Q 4.899022705078126 3.32145 4.805272705078126 3.32145 Q 4.728772705078126 3.32145 4.668397705078126 3.287325 Q 4.608022705078126 3.2531999999999996 4.574272705078126 3.19245 Q 4.540522705078126 3.1317 4.540522705078126 3.0537 Q 4.540522705078126 2.9757 4.574272705078126 2.9145749999999997 M 5.597290649414064 2.7912 L 5.597290649414064 3.3177 L 5.4690406494140635 3.3177 L 5.4690406494140635 3.10095 L 5.269540649414064 3.10095 L 5.269540649414064 3.3177 L 5.1412906494140636 3.3177 L 5.1412906494140636 2.7912 L 5.269540649414064 2.7912 L 5.269540649414064 2.9974499999999997 L 5.4690406494140635 2.9974499999999997 L 5.4690406494140635 2.7912 L 5.597290649414064 2.7912 M 5.9895355224609395 2.7912 L 5.9895355224609395 3.1062 Q 5.9895355224609395 3.15345 6.0127855224609394 3.17895 Q 6.036035522460939 3.20445 6.081035522460939 3.20445 Q 6.126035522460939 3.20445 6.150035522460939 3.17895 Q 6.174035522460939 3.15345 6.174035522460939 3.1062 L 6.174035522460939 2.7912 L 6.302285522460939 2.7912 L 6.302285522460939 3.10545 Q 6.302285522460939 3.17595 6.2722855224609395 3.2247 Q 6.242285522460939 3.27345 6.191660522460939 3.2982 Q 6.141035522460939 3.32295 6.078785522460939 3.32295 Q 6.01653552246094 3.32295 5.9674105224609395 3.298575 Q 5.918285522460939 3.2742 5.889785522460939 3.225075 Q 5.861285522460939 3.17595 5.861285522460939 3.10545 L 5.861285522460939 2.7912 L 5.9895355224609395 2.7912 M 6.870798339843752 3.3177 L 6.742548339843752 3.3177 L 6.528048339843752 2.99295 L 6.528048339843752 3.3177 L 6.399798339843752 3.3177 L 6.399798339843752 2.7912 L 6.528048339843752 2.7912 L 6.742548339843752 3.11745 L 6.742548339843752 2.7912 L 6.870798339843752 2.7912 L 6.870798339843752 3.3177 M 7.314058959960939 2.8242 Q 7.37630895996094 2.8571999999999997 7.4104339599609395 2.916825 Q 7.44455895996094 2.97645 7.44455895996094 3.05445 Q 7.44455895996094 3.1317 7.4104339599609395 3.1917 Q 7.37630895996094 3.2517 7.313683959960939 3.2847 Q 7.25105895996094 3.3177 7.16855895996094 3.3177 L 6.97130895996094 3.3177 L 6.97130895996094 2.7912 L 7.16855895996094 2.7912 Q 7.25180895996094 2.7912 7.314058959960939 2.8242 M 7.27355895996094 3.16695 Q 7.314058959960939 3.1271999999999998 7.314058959960939 3.05445 Q 7.314058959960939 2.9817 7.27355895996094 2.9412 Q 7.23305895996094 2.9007 7.16030895996094 2.9007 L 7.09955895996094 2.9007 L 7.09955895996094 3.2066999999999997 L 7.16030895996094 3.2066999999999997 Q 7.23305895996094 3.2066999999999997 7.27355895996094 3.16695 M 8.07078259277344 3.0443249999999997 Q 8.04978259277344 3.0822 8.00628259277344 3.10545 Q 7.96278259277344 3.1287 7.89828259277344 3.1287 L 7.818782592773441 3.1287 L 7.818782592773441 3.3177 L 7.69053259277344 3.3177 L 7.69053259277344 2.7912 L 7.89828259277344 2.7912 Q 7.96128259277344 2.7912 8.00478259277344 2.81295 Q 8.04828259277344 2.8346999999999998 8.07003259277344 2.87295 Q 8.09178259277344 2.9112 8.09178259277344 2.9607 Q 8.09178259277344 3.00645 8.07078259277344 3.0443249999999997 M 7.94328259277344 3.0094499999999997 Q 7.96128259277344 2.9922 7.96128259277344 2.9607 Q 7.96128259277344 2.9292 7.94328259277344 2.91195 Q 7.92528259277344 2.8947 7.888532592773441 2.8947 L 7.818782592773441 2.8947 L 7.818782592773441 3.0267 L 7.888532592773441 3.0267 Q 7.92528259277344 3.0267 7.94328259277344 3.0094499999999997 M 8.43455017089844 3.3177 L 8.325050170898441 3.11895 L 8.29430017089844 3.11895 L 8.29430017089844 3.3177 L 8.16605017089844 3.3177 L 8.16605017089844 2.7912 L 8.38130017089844 2.7912 Q 8.44355017089844 2.7912 8.48742517089844 2.81295 Q 8.53130017089844 2.8346999999999998 8.553050170898441 2.872575 Q 8.57480017089844 2.91045 8.57480017089844 2.95695 Q 8.57480017089844 3.0094499999999997 8.54517517089844 3.0507 Q 8.515550170898441 3.0919499999999998 8.457800170898441 3.1092 L 8.57930017089844 3.3177 L 8.43455017089844 3.3177 M 8.29430017089844 3.0282 L 8.373800170898441 3.0282 Q 8.40905017089844 3.0282 8.42667517089844 3.01095 Q 8.44430017089844 2.9937 8.44430017089844 2.9621999999999997 Q 8.44430017089844 2.9322 8.42667517089844 2.9149499999999997 Q 8.40905017089844 2.8977 8.373800170898441 2.8977 L 8.29430017089844 2.8977 L 8.29430017089844 3.0282 M 8.990283325195316 3.2247 L 8.793783325195315 3.2247 L 8.762283325195316 3.3177 L 8.628033325195316 3.3177 L 8.818533325195316 2.7912 L 8.967033325195317 2.7912 L 9.157533325195315 3.3177 L 9.021783325195315 3.3177 L 8.990283325195316 3.2247 M 8.957283325195316 3.1256999999999997 L 8.892033325195316 2.93295 L 8.827533325195315 3.1256999999999997 L 8.957283325195316 3.1256999999999997 M 9.545282958984378 3.3177 L 9.438032958984378 3.15645 L 9.343532958984378 3.3177 L 9.19803295898438 3.3177 L 9.366782958984379 3.04995 L 9.19428295898438 2.7912 L 9.343532958984378 2.7912 L 9.449282958984378 2.9501999999999997 L 9.542282958984378 2.7912 L 9.687782958984378 2.7912 L 9.52053295898438 3.0566999999999998 L 9.694532958984379 3.3177 L 9.545282958984378 3.3177 M 9.894803100585941 2.7912 L 9.894803100585941 3.3177 L 9.766553100585941 3.3177 L 9.766553100585941 2.7912 L 9.894803100585941 2.7912 M 10.082290283203129 3.3042 Q 10.036540283203129 3.28545 10.00916528320313 3.2487 Q 9.981790283203129 3.21195 9.980290283203129 3.1601999999999997 L 10.116790283203128 3.1601999999999997 Q 10.119790283203129 3.18945 10.13704028320313 3.204825 Q 10.15429028320313 3.2201999999999997 10.18204028320313 3.2201999999999997 Q 10.210540283203128 3.2201999999999997 10.227040283203129 3.2070749999999997 Q 10.24354028320313 3.19395 10.24354028320313 3.1707 Q 10.24354028320313 3.1512 10.23041528320313 3.1384499999999997 Q 10.217290283203129 3.1256999999999997 10.19816528320313 3.11745 Q 10.179040283203129 3.1092 10.14379028320313 3.0987 Q 10.09279028320313 3.08295 10.06054028320313 3.0671999999999997 Q 10.028290283203129 3.05145 10.00504028320313 3.0206999999999997 Q 9.981790283203129 2.98995 9.981790283203129 2.94045 Q 9.981790283203129 2.86695 10.035040283203129 2.825325 Q 10.08829028320313 2.7836999999999996 10.173790283203129 2.7836999999999996 Q 10.260790283203129 2.7836999999999996 10.314040283203129 2.825325 Q 10.367290283203129 2.86695 10.37104028320313 2.9412 L 10.23229028320313 2.9412 Q 10.23079028320313 2.9156999999999997 10.213540283203129 2.9010749999999996 Q 10.19629028320313 2.88645 10.169290283203129 2.88645 Q 10.14604028320313 2.88645 10.131790283203129 2.898825 Q 10.117540283203128 2.9112 10.117540283203128 2.93445 Q 10.117540283203128 2.95995 10.14154028320313 2.9741999999999997 Q 10.165540283203129 2.98845 10.216540283203129 3.00495 Q 10.267540283203129 3.0221999999999998 10.29941528320313 3.03795 Q 10.33129028320313 3.0537 10.354540283203129 3.0837 Q 10.37779028320313 3.1136999999999997 10.37779028320313 3.1609499999999997 Q 10.37779028320313 3.20595 10.354915283203129 3.2426999999999997 Q 10.33204028320313 3.2794499999999998 10.28854028320313 3.3011999999999997 Q 10.24504028320313 3.32295 10.18579028320313 3.32295 Q 10.128040283203129 3.32295 10.082290283203129 3.3042 M 10.93503295898438 3.3177 L 10.80678295898438 3.3177 L 10.592282958984379 2.99295 L 10.592282958984379 3.3177 L 10.46403295898438 3.3177 L 10.46403295898438 2.7912 L 10.592282958984379 2.7912 L 10.80678295898438 3.11745 L 10.80678295898438 2.7912 L 10.93503295898438 2.7912 L 10.93503295898438 3.3177 M 11.363293579101567 3.2247 L 11.166793579101567 3.2247 L 11.135293579101567 3.3177 L 11.001043579101568 3.3177 L 11.191543579101568 2.7912 L 11.340043579101568 2.7912 L 11.530543579101566 3.3177 L 11.394793579101567 3.3177 L 11.363293579101567 3.2247 M 11.330293579101568 3.1256999999999997 L 11.265043579101567 2.93295 L 11.200543579101566 3.1256999999999997 L 11.330293579101568 3.1256999999999997 M 12.05179321289063 2.7912 L 12.05179321289063 3.3177 L 11.92354321289063 3.3177 L 11.92354321289063 3.10095 L 11.72404321289063 3.10095 L 11.72404321289063 3.3177 L 11.59579321289063 3.3177 L 11.59579321289063 2.7912 L 11.72404321289063 2.7912 L 11.72404321289063 2.9974499999999997 L 11.92354321289063 2.9974499999999997 L 11.92354321289063 2.7912 L 12.05179321289063 2.7912" fill="#ffffff" fill-rule="nonzero"></path></g><g clip-path="url(&quot;#SvgjsClipPath1002&quot;)"><g clip-path="url(&quot;#SvgjsClipPath1000f33041e9-29d2-44c3-a0d3-5c9f8d7c6ec0&quot;)"><path d=" M -4.313845693865098 -0.08096655778705597 L -1.8831223115561793 -0.08096655778705597 L -4.415154356377551 2.25780324120538 L -6.84587773868647 2.25780324120538 Z" fill="#bab9b4" transform="matrix(1,0,0,1,0,0)" fill-rule="nonzero"></path></g><g clip-path="url(&quot;#SvgjsClipPath1000f33041e9-29d2-44c3-a0d3-5c9f8d7c6ec0&quot;)"><path d=" M -2.8307233823089186 1.0598967587946202 L -0.40000000000000036 1.0598967587946202 L -2.932032044821373 3.398666557787056 L -5.362755427130291 3.398666557787056 Z" fill="#dce2e3" transform="matrix(1,0,0,1,0,0)" fill-rule="nonzero"></path></g></g></g><defs><clipPath id="SvgjsClipPath1002"><path d=" M -6.84587773868647 -0.08096655778705597 h 6.44587773868647 v 3.479633115574112 h -6.44587773868647 Z"></path></clipPath><clipPath id="SvgjsClipPath1000f33041e9-29d2-44c3-a0d3-5c9f8d7c6ec0"><path d=" M -6.84587773868647 -0.08096655778705597 L -0.40000000000000036 -0.08096655778705597 L -0.40000000000000036 3.398666557787056 L -6.84587773868647 3.398666557787056 Z"></path></clipPath></defs></svg>